<svg width="550" height="162" viewBox="0 0 550 162" fill="none" xmlns="http://www.w3.org/2000/svg">
    <g clip-path="url(#clip0_15_5)">
        <path d="M102.866 66.3552L102.816 66.2719L102.752 66.181L70 19L37.1875 66.2643L37.1308 66.3552C30.5501 76.7012 26.0849 88.6628 26.0621 100.685C26.0583 105.851 26.9098 111.024 28.8323 115.958C30.747 120.893 33.7441 125.57 37.869 129.695H37.8729C46.7273 138.554 58.3903 143.008 70 143C81.61 143.008 93.2689 138.554 102.128 129.695C106.256 125.57 109.253 120.893 111.168 115.962C113.091 111.023 113.938 105.851 113.938 100.689C113.915 88.6631 109.45 76.7012 102.866 66.3552ZM101.034 112.019C99.6491 115.572 97.5339 118.906 94.4421 122.005C87.6797 128.764 78.8663 132.12 70 132.128C61.1338 132.12 52.3204 128.764 45.558 122.005C42.4626 118.906 40.351 115.572 38.9623 112.015C37.5811 108.462 36.9339 104.666 36.9339 100.685C36.9075 91.4632 40.5326 81.2308 46.2657 72.2585L70 38.0645L93.7419 72.266C99.4675 81.2383 103.089 91.4669 103.066 100.689C103.066 104.67 102.419 108.466 101.034 112.019Z" fill="#90CDF4"/>
        <path d="M57.728 76.5876C52.0554 82.892 43.0226 99.4857 48.6951 111.039C55.0297 123.943 63.6502 116.272 59.6199 108.102C51.8474 92.3451 57.728 76.5876 57.728 76.5876Z" fill="#90CDF4"/>
    </g>
    <path d="M159.671 46.047H166.932V75.939H206.47V46.047H213.572V115H206.47V82.829H166.932V115H159.671V46.047ZM226.688 124.699H229.391C232.606 124.699 235.097 124.187 236.864 123.162C238.631 122.137 240.079 120.318 241.21 117.703L242.429 114.576L221.282 62H229.179L246.616 106.52L263.629 62H271.473L249.213 118.392C247.941 121.643 246.422 124.24 244.655 126.183C242.924 128.126 240.927 129.54 238.666 130.423C236.44 131.306 233.949 131.748 231.193 131.748H226.688V124.699ZM324.245 40.8V115H317.143V40.8H324.245ZM320.747 88.288C320.747 93.8353 319.828 98.6937 317.991 102.863C316.154 106.997 313.574 110.212 310.253 112.509C306.932 114.806 303.063 115.954 298.646 115.954C293.982 115.954 289.883 114.806 286.35 112.509C282.852 110.212 280.131 106.997 278.188 102.863C276.245 98.6937 275.273 93.8353 275.273 88.288C275.273 82.7407 276.245 77.9177 278.188 73.819C280.131 69.685 282.852 66.4873 286.35 64.226C289.883 61.9647 293.982 60.834 298.646 60.834C303.063 60.834 306.932 61.9647 310.253 64.226C313.574 66.4873 316.154 69.685 317.991 73.819C319.828 77.9177 320.747 82.7407 320.747 88.288ZM282.693 88.288C282.693 94.8953 284.195 100.036 287.198 103.711C290.237 107.386 294.477 109.223 299.918 109.223C305.395 109.223 309.635 107.386 312.638 103.711C315.641 100.036 317.143 94.8953 317.143 88.288C317.143 81.716 315.641 76.628 312.638 73.024C309.635 69.3847 305.395 67.565 299.918 67.565C294.477 67.565 290.237 69.3847 287.198 73.024C284.195 76.628 282.693 81.716 282.693 88.288ZM360.03 68.519H357.804C354.942 68.519 352.38 69.1197 350.119 70.321C347.858 71.487 346.056 73.13 344.713 75.25C343.406 77.3347 342.752 79.755 342.752 82.511L339.519 81.875C339.519 77.529 340.438 73.8013 342.275 70.692C344.112 67.5473 346.427 65.1447 349.218 63.484C352.045 61.788 354.924 60.94 357.857 60.94H360.03V68.519ZM335.491 62H342.752V115H335.491V62ZM409.466 80.656V115H402.205V80.232C402.205 76.2393 400.933 73.0593 398.389 70.692C395.845 68.3247 392.382 67.141 388.001 67.141C379.909 67.141 375.44 71.2043 374.592 79.331H367.066C367.313 75.6563 368.373 72.441 370.246 69.685C372.118 66.8937 374.609 64.7207 377.719 63.166C380.828 61.6113 384.361 60.834 388.319 60.834C392.488 60.834 396.145 61.682 399.29 63.378C402.47 65.074 404.961 67.4237 406.763 70.427C408.565 73.395 409.466 76.8047 409.466 80.656ZM405.809 92.369C405.809 97.139 404.872 101.308 403 104.877C401.127 108.446 398.53 111.219 395.209 113.198C391.887 115.141 388.036 116.113 383.655 116.113C380.121 116.113 376.994 115.459 374.274 114.152C371.588 112.845 369.486 111.025 367.967 108.693C366.447 106.361 365.688 103.676 365.688 100.637C365.688 96.4323 367.119 93.0403 369.981 90.461C372.843 87.8817 376.818 86.38 381.906 85.956L399.555 84.525C400.509 84.4543 401.18 84.207 401.569 83.783C401.993 83.359 402.205 82.7053 402.205 81.822L402.417 90.461L383.231 91.786C376.411 92.2807 373.002 95.0897 373.002 100.213C373.002 103.11 374.079 105.407 376.235 107.103C378.425 108.799 381.376 109.647 385.086 109.647C390.209 109.647 394.343 108.057 397.488 104.877C400.632 101.697 402.205 97.4747 402.205 92.21L405.809 92.369ZM419.94 62H460.167V69.579L428.049 108.746H460.167V115H419.94V107.421L451.952 68.254H419.94V62ZM467.858 88.394C467.858 82.776 468.865 77.9 470.879 73.766C472.928 69.5967 475.808 66.399 479.518 64.173C483.263 61.947 487.644 60.834 492.662 60.834C497.396 60.834 501.601 61.9647 505.276 64.226C508.95 66.4873 511.83 69.6143 513.915 73.607C515.999 77.5643 517.042 82.1223 517.042 87.281V90.408H474.377V84.472H509.357C508.933 79.2427 507.184 75.091 504.11 72.017C501.071 68.9077 497.22 67.353 492.556 67.353C486.902 67.353 482.592 69.1373 479.624 72.706C476.691 76.2393 475.225 81.4157 475.225 88.235C475.225 95.1603 476.762 100.425 479.836 104.029C482.945 107.633 487.432 109.435 493.298 109.435C497.75 109.435 501.301 108.446 503.951 106.467C506.601 104.453 508.261 101.768 508.933 98.411H516.353C515.187 103.958 512.696 108.269 508.88 111.343C505.064 114.417 499.87 115.954 493.298 115.954C488.104 115.954 483.599 114.841 479.783 112.615C475.967 110.389 473.016 107.227 470.932 103.128C468.882 98.994 467.858 94.0827 467.858 88.394Z" fill="white"/>
    <defs>
        <clipPath id="clip0_15_5">
            <rect width="124" height="124" fill="white" transform="translate(8 19)"/>
        </clipPath>
    </defs>
</svg>
