<svg width="264" height="264" viewBox="0 0 264 264" fill="none" xmlns="http://www.w3.org/2000/svg">
  <circle cx="132" cy="132" r="132" fill="url(#paint0_linear_1_2)" />
  <path d="M178.724 80H84.5521C81.9343 80 79.7588 82.1755 79.7588 84.7933V178.965C79.7588 181.583 81.9343 183.759 84.5521 183.759H178.724C181.341 183.759 183.517 181.583 183.517 178.965V84.7933C183.517 82.1755 181.341 80 178.724 80Z" fill="white"/>
  <path d="M143.586 103.172H97.931C95.3133 103.172 93.1377 105.348 93.1377 107.966V153.621C93.1377 156.239 95.3133 158.414 97.931 158.414H143.586C146.204 158.414 148.379 156.239 148.379 153.621V107.966C148.379 105.348 146.204 103.172 143.586 103.172Z" fill="#1A56DB"/>
  <path d="M172.414 129.655H157.241C154.623 129.655 152.448 131.831 152.448 134.448V149.621C152.448 152.239 154.623 154.414 157.241 154.414H172.414C175.032 154.414 177.207 152.239 177.207 149.621V134.448C177.207 131.831 175.032 129.655 172.414 129.655Z" fill="#7E3AF2"/>
  <path d="M172.414 106.138H157.241C154.623 106.138 152.448 108.314 152.448 110.931V115.724C152.448 118.342 154.623 120.517 157.241 120.517H172.414C175.032 120.517 177.207 118.342 177.207 115.724V110.931C177.207 108.314 175.032 106.138 172.414 106.138Z" fill="#1C64F2"/>
  <path d="M110.345 174.138H105.552C102.934 174.138 100.759 176.314 100.759 178.931V183.724C100.759 186.342 102.934 188.517 105.552 188.517H110.345C112.962 188.517 115.138 186.342 115.138 183.724V178.931C115.138 176.314 112.962 174.138 110.345 174.138Z" fill="#7E3AF2"/>
  <path d="M136.828 174.138H120.138C117.52 174.138 115.345 176.314 115.345 178.931V183.724C115.345 186.342 117.52 188.517 120.138 188.517H136.828C139.446 188.517 141.621 186.342 141.621 183.724V178.931C141.621 176.314 139.446 174.138 136.828 174.138Z" fill="#1C64F2"/>
  <defs>
    <linearGradient id="paint0_linear_1_2" x1="0" y1="0" x2="264" y2="264" gradientUnits="userSpaceOnUse">
      <stop stopColor="#DBEAFE"/>
      <stop offset="1" stopColor="#EEF2FF"/>
    </linearGradient>
  </defs>
</svg>
